<?xml version="1.0" encoding="utf-8"?>
<!-- Generator: Adobe Illustrator 16.0.0, SVG Export Plug-In . SVG Version: 6.00 Build 0)  -->
<!DOCTYPE svg PUBLIC "-//W3C//DTD SVG 1.1//EN" "http://www.w3.org/Graphics/SVG/1.1/DTD/svg11.dtd">
<svg version="1.1" id="Capa_1" xmlns="http://www.w3.org/2000/svg" xmlns:xlink="http://www.w3.org/1999/xlink" x="0px" y="0px"
	 width="200px" height="200px" viewBox="0 0 200 200" enable-background="new 0 0 200 200" xml:space="preserve">
<g>
	<path fill="#FFFFFF" d="M183.811,51.497c-0.102-5.399-0.2-10.5-0.2-15.436c0-3.866-3.134-7-7.001-7
		c-29.938,0-52.732-8.604-71.733-27.078c-2.718-2.643-7.043-2.643-9.76,0c-18.999,18.474-41.79,27.078-71.727,27.078
		c-3.866,0-7,3.134-7,7c0,4.936-0.097,10.039-0.201,15.439c-0.959,50.25-2.274,119.072,81.515,148.114
		c0.743,0.258,1.518,0.387,2.292,0.387s1.551-0.129,2.292-0.387C186.083,170.57,184.771,101.748,183.811,51.497z M99.996,185.571
		c-71.86-26.104-70.773-83.289-69.809-133.804c0.058-3.032,0.114-5.97,0.153-8.851c28.039-1.184,50.461-9.681,69.656-26.401
		c19.196,16.721,41.623,25.219,69.664,26.401c0.039,2.879,0.095,5.816,0.152,8.846C170.776,102.279,171.861,159.466,99.996,185.571z
		"/>
	<path fill="#FFFFFF" d="M124.104,75.682l-33.789,33.787L75.897,95.05c-2.734-2.733-7.167-2.733-9.9,0
		c-2.734,2.735-2.734,7.167,0,9.901l19.368,19.367c1.366,1.367,3.159,2.051,4.95,2.051c1.792,0,3.583-0.684,4.95-2.051
		l38.737-38.736c2.734-2.734,2.734-7.167,0.001-9.899C131.27,72.949,126.837,72.948,124.104,75.682z"/>
</g>
</svg>
