<?xml version="1.0" encoding="utf-8"?>
<!-- Generator: Adobe Illustrator 16.0.0, SVG Export Plug-In . SVG Version: 6.00 Build 0)  -->
<!DOCTYPE svg PUBLIC "-//W3C//DTD SVG 1.1//EN" "http://www.w3.org/Graphics/SVG/1.1/DTD/svg11.dtd">
<svg version="1.1" id="Solid" xmlns="http://www.w3.org/2000/svg" xmlns:xlink="http://www.w3.org/1999/xlink" x="0px" y="0px"
	 width="512px" height="512px" viewBox="0 0 512 512" enable-background="new 0 0 512 512" xml:space="preserve">
<path fill="#FFFFFF" d="M462.447,223.118c-12.768,3.556-26.002-3.906-29.565-16.671c-10.769-38.232-33.524-71.999-64.919-96.331
	c-65.991-50.821-157.934-50.821-223.925,0c-11.914,9.219-22.652,19.865-31.973,31.7l-18.928,5.567l-2.962-53.331
	C172.124,9.803,304.215,0.374,397.3,72.128c39.567,30.672,68.246,73.235,81.814,121.425
	C482.675,206.319,475.213,219.556,462.447,223.118z M410.862,364.618l-18.928,5.567c-9.32,11.834-20.058,22.48-31.972,31.699
	c-65.991,50.821-157.934,50.821-223.925,0c-31.395-24.332-54.151-58.098-64.92-96.33c-3.561-12.769-16.797-20.232-29.565-16.672
	c-12.768,3.561-20.232,16.797-16.671,29.565c13.57,48.19,42.25,90.752,81.818,121.424c93.029,71.944,225.262,62.505,307.129-21.924
	L410.862,364.618z M62.771,223.024l136-40c12.748-3.631,20.138-16.909,16.507-29.656c-3.631-12.748-16.909-20.139-29.657-16.507
	c-0.131,0.037-0.263,0.076-0.394,0.116L78.282,168.43l-6.32-113.761c-0.61-13.241-11.839-23.479-25.08-22.869
	c-13.241,0.611-23.479,11.839-22.869,25.08c0.007,0.15,0.015,0.301,0.025,0.451l8,144c0.735,13.234,12.061,23.367,25.295,22.631
	C59.176,223.859,61.001,223.545,62.771,223.024L62.771,223.024z M457.331,479.962c13.234-0.735,23.366-12.06,22.631-25.294l-8-144
	c-0.735-13.234-12.061-23.367-25.295-22.631c-1.843,0.102-3.669,0.417-5.44,0.938l-135.994,40
	c-12.699,3.799-19.914,17.172-16.116,29.871c3.774,12.617,17.009,19.836,29.66,16.178l106.941-31.453l6.32,113.76
	c0.705,12.71,11.211,22.658,23.941,22.67C456.427,480,456.878,479.987,457.331,479.962L457.331,479.962z"/>
</svg>
