<?xml version="1.0" encoding="utf-8"?>
<!-- Generator: Adobe Illustrator 16.0.0, SVG Export Plug-In . SVG Version: 6.00 Build 0)  -->
<!DOCTYPE svg PUBLIC "-//W3C//DTD SVG 1.1//EN" "http://www.w3.org/Graphics/SVG/1.1/DTD/svg11.dtd">
<svg version="1.1" id="Solid" xmlns="http://www.w3.org/2000/svg" xmlns:xlink="http://www.w3.org/1999/xlink" x="0px" y="0px"
	 width="512px" height="512px" viewBox="0 0 512 512" enable-background="new 0 0 512 512" xml:space="preserve">
<path fill="#FFFFFF" d="M168,146.666V464c0,13.255-10.745,24-24,24s-24-10.745-24-24l0,0V146.666l24-32L168,146.666z M368,397.334
	l24-32V48c0-13.255-10.745-24-24-24s-24,10.745-24,24v317.334L368,397.334z M259.2,161.6l-96-128
	c-7.953-10.604-22.996-12.753-33.6-4.8c-1.819,1.365-3.436,2.981-4.8,4.8l-96,128c-7.953,10.604-5.804,25.647,4.8,33.6
	c10.604,7.953,25.647,5.804,33.6-4.8l0,0L144,88l76.8,102.4c7.953,10.604,22.996,12.753,33.6,4.8
	C265.004,187.247,267.152,172.204,259.2,161.6L259.2,161.6z M478.4,316.8c-10.604-7.952-25.647-5.804-33.601,4.8l0,0L368,424
	l-76.8-102.4c-7.945-10.609-22.987-12.77-33.597-4.824s-12.77,22.988-4.824,33.598c0.007,0.009,0.014,0.018,0.021,0.027l96,128
	c7.953,10.604,22.996,12.753,33.601,4.8c1.819-1.364,3.436-2.98,4.8-4.8l96-128C491.153,339.796,489.004,324.753,478.4,316.8
	L478.4,316.8L478.4,316.8z"/>
</svg>
