<?xml version="1.0" encoding="utf-8"?>
<!-- Generator: Adobe Illustrator 16.0.0, SVG Export Plug-In . SVG Version: 6.00 Build 0)  -->
<!DOCTYPE svg PUBLIC "-//W3C//DTD SVG 1.1//EN" "http://www.w3.org/Graphics/SVG/1.1/DTD/svg11.dtd">
<svg version="1.1" id="Capa_1" xmlns="http://www.w3.org/2000/svg" xmlns:xlink="http://www.w3.org/1999/xlink" x="0px" y="0px"
	 width="200px" height="200px" viewBox="0 0 200 200" enable-background="new 0 0 200 200" xml:space="preserve">
<g>
	<g>
		<path fill="#FFFFFF" d="M162.143,97.724c20.498-18.427,22.177-49.981,3.75-70.479c-16.901-18.8-45.189-21.993-65.857-7.435
			C77.507,3.91,46.354,9.284,30.455,31.813c-14.589,20.672-11.409,48.99,7.403,65.911c-23.374,12.321-37.962,36.612-37.856,63.035
			v21.429c0,3.945,3.198,7.143,7.143,7.143h185.714c3.945,0,7.143-3.197,7.143-7.143v-21.429
			C200.105,134.336,185.518,110.045,162.143,97.724z M128.571,25.045c19.696-0.022,35.682,15.928,35.704,35.625
			c0.016,14.047-8.217,26.795-21.025,32.561c-0.551,0.25-1.1,0.479-1.657,0.714c-1.763,0.711-3.581,1.277-5.437,1.693
			c-0.356,0.079-0.714,0.122-1.078,0.193c-2.072,0.397-4.176,0.609-6.285,0.636c-0.95,0-1.908-0.072-2.857-0.157
			c-0.357,0-0.715,0-1.072-0.071c-4.059-0.478-8.008-1.642-11.678-3.443c-0.136-0.064-0.293-0.058-0.429-0.114
			c-0.714-0.343-1.429-0.643-2.063-1.029c0.057-0.072,0.092-0.15,0.148-0.222c3.275-4.208,5.858-8.913,7.65-13.936l0.222-0.6
			c0.814-2.399,1.447-4.855,1.893-7.35c0.064-0.364,0.114-0.714,0.172-1.107c0.413-2.539,0.63-5.106,0.649-7.679
			c-0.02-2.567-0.237-5.13-0.649-7.665c-0.058-0.371-0.107-0.714-0.172-1.107c-0.445-2.494-1.078-4.951-1.893-7.35l-0.222-0.6
			c-1.792-5.023-4.375-9.727-7.65-13.936c-0.057-0.072-0.092-0.15-0.148-0.222C116.119,26.715,122.289,25.046,128.571,25.045z
			 M35.715,60.76c-0.051-19.673,15.856-35.663,35.529-35.713c9.222-0.023,18.094,3.53,24.749,9.914c0.415,0.4,0.822,0.8,1.221,1.214
			c1.227,1.285,2.358,2.658,3.386,4.107c0.313,0.443,0.601,0.915,0.893,1.372c0.998,1.537,1.874,3.148,2.621,4.821
			c0.179,0.407,0.314,0.822,0.472,1.229c0.752,1.851,1.346,3.762,1.771,5.714c0.05,0.214,0.064,0.428,0.107,0.65
			c0.904,4.435,0.904,9.007,0,13.442c-0.043,0.222-0.058,0.436-0.107,0.65c-0.426,1.952-1.019,3.864-1.771,5.714
			c-0.157,0.407-0.293,0.821-0.472,1.229c-0.747,1.67-1.624,3.28-2.621,4.814c-0.293,0.457-0.579,0.929-0.893,1.372
			c-1.028,1.449-2.159,2.822-3.386,4.107c-0.4,0.415-0.807,0.814-1.221,1.214c-2.892,2.756-6.226,5.006-9.864,6.657
			c-0.578,0.264-1.164,0.507-1.757,0.714c-1.722,0.684-3.494,1.233-5.3,1.643c-0.45,0.1-0.915,0.157-1.372,0.235
			c-1.939,0.361-3.906,0.559-5.878,0.593h-0.786c-1.973-0.034-3.939-0.232-5.878-0.593c-0.457-0.079-0.922-0.135-1.372-0.235
			c-1.807-0.41-3.579-0.959-5.3-1.643c-0.593-0.235-1.179-0.478-1.757-0.714C43.951,87.496,35.731,74.781,35.715,60.76z
			 M128.571,175.045H14.286V160.76c-0.104-24.205,15.146-45.816,37.985-53.828c12.261,5.104,26.053,5.104,38.314,0
			c2.385,0.871,4.709,1.898,6.957,3.078c1.486,0.764,2.857,1.635,4.285,2.514c0.93,0.578,1.872,1.143,2.766,1.779
			c1.378,0.979,2.678,2.043,3.957,3.135c0.821,0.715,1.635,1.429,2.406,2.144c1.179,1.114,2.285,2.292,3.35,3.5
			c0.765,0.871,1.508,1.757,2.215,2.671c0.936,1.2,1.828,2.43,2.657,3.693c0.714,1.071,1.351,2.186,1.979,3.3
			c0.714,1.229,1.371,2.457,1.972,3.735c0.6,1.279,1.128,2.68,1.643,4.043c0.449,1.186,0.928,2.365,1.299,3.572
			c0.501,1.656,0.851,3.371,1.201,5.085c0.214,1.015,0.492,2.007,0.649,3.036c0.423,2.827,0.64,5.683,0.649,8.543L128.571,175.045
			L128.571,175.045z M185.714,175.045h-42.856V160.76c0-2.236-0.129-4.451-0.328-6.644c-0.059-0.643-0.158-1.278-0.229-1.921
			c-0.193-1.579-0.415-3.143-0.715-4.693c-0.129-0.662-0.264-1.326-0.408-1.993c-0.342-1.591-0.74-3.167-1.191-4.729
			c-0.15-0.515-0.287-1.036-0.443-1.542c-2-6.395-4.898-12.471-8.607-18.051l-0.278-0.406c-1.229-1.824-2.54-3.588-3.937-5.293
			l-0.049-0.064c-1.429-1.771-2.979-3.493-4.607-5.121c0.093,0,0.193,0,0.293,0c2.016,0.265,4.045,0.408,6.078,0.428h0.394
			c1.882-0.016,3.761-0.138,5.629-0.363c0.585-0.072,1.164-0.18,1.749-0.271c1.52-0.234,3.02-0.536,4.5-0.908
			c0.422-0.106,0.851-0.207,1.279-0.328c1.943-0.528,3.852-1.178,5.714-1.942c22.856,8.005,38.12,29.625,38.015,53.843
			L185.714,175.045L185.714,175.045z"/>
	</g>
</g>
</svg>
