<?xml version="1.0" encoding="utf-8"?>
<!-- Generator: Adobe Illustrator 16.0.0, SVG Export Plug-In . SVG Version: 6.00 Build 0)  -->
<!DOCTYPE svg PUBLIC "-//W3C//DTD SVG 1.1//EN" "http://www.w3.org/Graphics/SVG/1.1/DTD/svg11.dtd">
<svg version="1.1" id="Capa_1" xmlns="http://www.w3.org/2000/svg" xmlns:xlink="http://www.w3.org/1999/xlink" x="0px" y="0px"
	 width="200px" height="200px" viewBox="0 0 200 200" enable-background="new 0 0 200 200" xml:space="preserve">
<g>
	<g>
		<g>
			<path fill="#FFFFFF" d="M137.68,85.938c0-4.315-3.498-7.813-7.813-7.813H49.398c-4.315,0-7.813,3.498-7.813,7.813
				s3.498,7.813,7.813,7.813h80.469C134.182,93.75,137.68,90.252,137.68,85.938z"/>
			<path fill="#FFFFFF" d="M49.398,109.375c-4.315,0-7.813,3.498-7.813,7.813S45.083,125,49.398,125H98.27
				c4.314,0,7.813-3.498,7.813-7.813s-3.498-7.813-7.813-7.813H49.398z"/>
			<path fill="#FFFFFF" d="M67.757,184.375H41.629c-8.616,0-15.625-7.01-15.625-15.625V31.25c0-8.616,7.009-15.625,15.625-15.625
				h96.051c8.615,0,15.625,7.009,15.625,15.625v48.047c0,4.315,3.497,7.813,7.813,7.813c4.314,0,7.813-3.498,7.813-7.813V31.25
				C168.93,14.019,154.91,0,137.68,0H41.629c-17.231,0-31.25,14.019-31.25,31.25v137.5c0,17.231,14.019,31.25,31.25,31.25h26.128
				c4.315,0,7.813-3.498,7.813-7.813S72.072,184.375,67.757,184.375z"/>
			<path fill="#FFFFFF" d="M182.768,113.114c-9.139-9.139-24.008-9.139-33.14-0.007l-42.892,42.797
				c-0.911,0.909-1.583,2.029-1.957,3.26l-9.341,30.752c-0.828,2.727-0.107,5.688,1.883,7.727c1.49,1.528,3.516,2.357,5.593,2.357
				c0.694,0,1.396-0.093,2.085-0.284l31.533-8.734c1.298-0.359,2.48-1.048,3.434-2l42.802-42.722
				C191.906,137.122,191.906,122.253,182.768,113.114z M130.381,176.472l-15.863,4.395l4.643-15.284l28.94-28.877l11.051,11.051
				L130.381,176.472z M171.725,135.207l-1.514,1.511l-11.049-11.049l1.509-1.506c3.046-3.046,8.002-3.046,11.048,0
				C174.766,127.209,174.766,132.166,171.725,135.207z"/>
			<path fill="#FFFFFF" d="M129.867,46.875H49.398c-4.315,0-7.813,3.498-7.813,7.813s3.498,7.813,7.813,7.813h80.469
				c4.314,0,7.813-3.498,7.813-7.813S134.182,46.875,129.867,46.875z"/>
		</g>
	</g>
</g>
</svg>
