<?xml version="1.0" encoding="utf-8"?>
<!-- Generator: Adobe Illustrator 16.0.0, SVG Export Plug-In . SVG Version: 6.00 Build 0)  -->
<!DOCTYPE svg PUBLIC "-//W3C//DTD SVG 1.1//EN" "http://www.w3.org/Graphics/SVG/1.1/DTD/svg11.dtd">
<svg version="1.1" id="Capa_1" xmlns="http://www.w3.org/2000/svg" xmlns:xlink="http://www.w3.org/1999/xlink" x="0px" y="0px"
	 width="200px" height="200px" viewBox="0 0 200 200" enable-background="new 0 0 200 200" xml:space="preserve">
<g>
	<g>
		<g>
			<path fill="#FFFFFF" d="M77.757,184.375H51.629c-8.616,0-15.625-7.01-15.625-15.625V31.25c0-8.616,7.009-15.625,15.625-15.625
				h96.051c8.615,0,15.625,7.009,15.625,15.625v48.047c0,4.315,3.497,7.813,7.813,7.813c4.314,0,7.813-3.498,7.813-7.813V31.25
				C178.93,14.019,164.91,0,147.68,0H51.629c-17.231,0-31.25,14.019-31.25,31.25v137.5c0,17.231,14.019,31.25,31.25,31.25h26.128
				c4.315,0,7.813-3.498,7.813-7.813S82.072,184.375,77.757,184.375z"/>
			<g>
				<path fill="#FFFFFF" d="M121.506,15.617l26.128-0.009c8.616-0.003,15.628,7.004,15.631,15.619l0.049,137.5
					c0.003,8.615-7.004,15.627-15.619,15.631l-96.051,0.035c-8.615,0.002-15.627-7.004-15.631-15.621l-0.017-48.047
					c-0.001-4.314-3.5-7.811-7.815-7.809c-4.314,0.002-7.811,3.5-7.81,7.814l0.017,48.047c0.006,17.232,14.031,31.246,31.261,31.24
					l96.051-0.035c17.231-0.006,31.245-14.029,31.238-31.262l-0.049-137.5c-0.007-17.231-14.03-31.245-31.262-31.239L121.5-0.008
					c-4.315,0.001-7.812,3.501-7.81,7.815C113.691,12.122,117.19,15.618,121.506,15.617z"/>
			</g>
			<g>
				<g>
					<path fill="#FFFFFF" d="M101.537,130.481c-2.167,2.94-5.539,4.749-9.188,4.929c-3.648,0.18-7.182-1.29-9.625-4.004
						l-21.906-24.31c-3.481-3.861-3.172-9.813,0.689-13.294c3.865-3.481,9.813-3.17,13.294,0.692l15.499,17.201
						c0.23,0.254,0.563,0.392,0.904,0.374c0.345-0.017,0.66-0.189,0.866-0.464l31.856-43.206c3.082-4.185,8.976-5.074,13.162-1.989
						c4.184,3.085,5.072,8.978,1.987,13.16L101.537,130.481z"/>
				</g>
			</g>
		</g>
	</g>
</g>
</svg>
