<?xml version="1.0" encoding="utf-8"?>
<!-- Generator: Adobe Illustrator 16.0.0, SVG Export Plug-In . SVG Version: 6.00 Build 0)  -->
<!DOCTYPE svg PUBLIC "-//W3C//DTD SVG 1.1//EN" "http://www.w3.org/Graphics/SVG/1.1/DTD/svg11.dtd">
<svg version="1.1" id="Layer_1" xmlns="http://www.w3.org/2000/svg" xmlns:xlink="http://www.w3.org/1999/xlink" x="0px" y="0px"
	 width="140px" height="140px" viewBox="0 0 140 140" enable-background="new 0 0 140 140" xml:space="preserve">
<g>
	<g>
		<path fill="#55C3B3" d="M139.522,70.121c0,38.046-31.233,69.279-69.279,69.279c-38.046,0-69.279-31.232-69.279-69.279
			c0-38.047,31.232-69.279,69.279-69.279C108.289,0.842,139.522,32.074,139.522,70.121z"/>
	</g>
</g>
<g>
	<path fill="#FFFFFF" d="M60.001,67.807v0.848c0,0.891,0.424,1.061,1.061,1.061h3.818c0.594,0,1.018,0.255,1.018,0.679v3.479
		c0,0.424-0.339,0.764-0.976,0.934c-1.188,0.297-3.054,0.551-4.708,0.551c-3.903,0-7.042-1.654-7.042-6.66v-0.891
		c-5.302-1.103-9.163-5.09-9.163-13.277v-5.048c0-9.841,5.557-13.617,12.556-13.617c7,0,12.556,3.775,12.556,13.617v5.048
		C69.121,62.674,65.304,66.704,60.001,67.807z M61.825,49.482c0-5.09-1.697-7.254-5.26-7.254c-3.563,0-5.217,2.164-5.217,7.254
		v5.048c0,5.09,1.654,7.254,5.217,7.254c3.563,0,5.26-2.164,5.26-7.254V49.482z"/>
	<path fill="#FFFFFF" d="M90.668,51.942l-3.605,2.418c-3.605,2.417-6.151,4.242-6.151,7.211v0.17h13.405
		c0.467,0,0.848,0.339,0.848,0.806v4.369c0,0.467-0.381,0.849-0.848,0.849H75.439c-0.467,0-0.849-0.382-0.849-0.849v-4.327
		c0-4.666,2.546-8.484,5.77-10.774l3.902-2.757c3.69-2.587,4.327-2.927,4.327-4.92c0-1.824-1.061-2.545-4.497-2.545
		c-2.587,0-5.769,0.297-8.356,0.552c-0.042,0-0.042,0-0.085,0c-0.467,0-0.764-0.382-0.764-0.849v-3.309
		c0-0.424,0.382-0.679,0.807-0.806c2.375-0.721,5.896-1.315,9.035-1.315c7.805,0,10.816,2.672,10.816,8.102
		C95.546,47.403,93.807,49.821,90.668,51.942z"/>
</g>
<g>
	<path fill="#FFFFFF" d="M46.076,93.771l-2.851,1.931c-3.296,2.227-4.157,3.741-4.157,6.324v0.624h10.007
		c0.326,0,0.594,0.178,0.594,0.505v1.307c0,0.326-0.268,0.534-0.594,0.534H37.286c-0.326,0-0.594-0.237-0.594-0.564v-2.405
		c0-3.088,1.307-5.642,4.543-7.809l2.999-2.02c2.465-1.663,3.059-2.376,3.059-4.157c0-2.138-1.247-3.059-4.454-3.059
		c-1.544,0-3.593,0.208-5.256,0.445c-0.029,0-0.059,0-0.118,0c-0.297,0-0.476-0.208-0.476-0.534v-1.039
		c0-0.297,0.268-0.476,0.564-0.535c1.515-0.386,3.533-0.594,5.285-0.594c4.811,0,7.097,1.663,7.097,5.315
		C49.936,90.387,48.837,91.901,46.076,93.771z"/>
	<path fill="#FFFFFF" d="M61.277,105.204c-4.483,0-7.305-2.673-7.305-9.235v-4.008c0-6.563,2.821-9.235,7.305-9.235
		s7.274,2.673,7.274,9.235v4.008C68.552,102.531,65.761,105.204,61.277,105.204z M65.85,91.961c0-5.019-1.781-6.948-4.572-6.948
		s-4.573,1.93-4.573,6.948v4.008c0,5.019,1.782,6.949,4.573,6.949s4.572-1.931,4.572-6.949V91.961z"/>
	<path fill="#FFFFFF" d="M82.002,93.771l-2.851,1.931c-3.296,2.227-4.157,3.741-4.157,6.324v0.624h10.007
		c0.326,0,0.594,0.178,0.594,0.505v1.307c0,0.326-0.268,0.534-0.594,0.534H73.213c-0.327,0-0.594-0.237-0.594-0.564v-2.405
		c0-3.088,1.306-5.642,4.543-7.809l2.999-2.02c2.464-1.663,3.059-2.376,3.059-4.157c0-2.138-1.248-3.059-4.454-3.059
		c-1.545,0-3.594,0.208-5.256,0.445c-0.03,0-0.06,0-0.119,0c-0.297,0-0.475-0.208-0.475-0.534v-1.039
		c0-0.297,0.267-0.476,0.563-0.535c1.515-0.386,3.534-0.594,5.286-0.594c4.81,0,7.097,1.663,7.097,5.315
		C85.862,90.387,84.764,91.901,82.002,93.771z"/>
	<path fill="#FFFFFF" d="M90.879,104.996c-0.327,0-0.595-0.208-0.595-0.534v-1.307c0-0.327,0.268-0.505,0.595-0.505H95.6V85.725
		l-4.662,1.96c-0.237,0.089-0.653,0.179-0.653-0.237v-1.515c0-0.208,0.09-0.267,0.298-0.386l5.314-2.435
		c0.237-0.119,0.445-0.179,0.624-0.179h1.217c0.297,0,0.564,0.237,0.564,0.564v19.152h4.751c0.327,0,0.594,0.178,0.594,0.505v1.307
		c0,0.326-0.267,0.534-0.594,0.534H90.879z"/>
</g>
<g>
</g>
<g>
</g>
<g>
</g>
<g>
</g>
<g>
</g>
<g>
</g>
</svg>
