<?xml version="1.0" encoding="utf-8"?>
<!-- Generator: Adobe Illustrator 16.0.0, SVG Export Plug-In . SVG Version: 6.00 Build 0)  -->
<!DOCTYPE svg PUBLIC "-//W3C//DTD SVG 1.1//EN" "http://www.w3.org/Graphics/SVG/1.1/DTD/svg11.dtd">
<svg version="1.1" id="Layer_1" xmlns="http://www.w3.org/2000/svg" xmlns:xlink="http://www.w3.org/1999/xlink" x="0px" y="0px"
	 width="598px" height="552px" viewBox="0 0 598 552" enable-background="new 0 0 598 552" xml:space="preserve">
<circle fill="#010035" cx="291.563" cy="292.58" r="200.217"/>
<g>
	<g>
		<ellipse opacity="0.2" fill="#9E9EA5" cx="302.255" cy="408.607" rx="177.49" ry="12.881"/>
		<g>
			<path fill="#182632" d="M449.529,321.914H143.811V159.457c0-10.013,8.193-18.207,18.207-18.207h270.517
				c9.348,0,16.995,7.647,16.995,16.995V321.914z"/>
			<path fill="#FFFFFF" d="M422.124,349.32H171.216c-15.136,0-27.406-12.27-27.406-27.406l0,0h305.719l0,0
				C449.529,337.051,437.26,349.32,422.124,349.32z"/>
			<rect x="268.732" y="349.32" fill="#E1E1E1" width="55.477" height="46.164"/>
			<rect x="268.732" y="349.32" fill="#BBBBBB" width="55.477" height="14.633"/>
			<path fill="#FFFFFF" d="M360.597,413.045H232.345v-3.018c0-7.998,6.545-14.543,14.543-14.543h99.166
				c7.998,0,14.543,6.545,14.543,14.543V413.045z"/>
		</g>
		<g>
			<path fill="#55C3B3" d="M161.417,154.42c-2.634,0-4.789,2.155-4.789,4.79v3.441L320.68,304.486h21.798h6.29L175.196,154.42
				H161.417z"/>
			<path fill="#55C3B3" d="M156.628,215.055v18.542v41.996v24.104c0,2.635,2.155,4.789,4.789,4.789h2.096h42.126h12.628h78.619
				L156.628,183.222V215.055z"/>
			<path fill="#55C3B3" d="M431.524,154.42h-29.313h-12.629h-42.125h-42.302H253.68h-10.154l173.572,150.066h14.427
				c2.634,0,4.789-2.154,4.789-4.789v-53.22v-18.544V159.21C436.313,156.576,434.158,154.42,431.524,154.42z"/>
			<polygon opacity="0.57" fill="#55C3B3" points="230.951,154.42 175.196,154.42 348.768,304.486 365.208,304.486 417.098,304.486 
				243.526,154.42 			"/>
			<polygon opacity="0.57" fill="#55C3B3" points="156.628,183.222 296.886,304.486 320.68,304.486 156.628,162.651 			"/>
		</g>
		<circle fill="#BBBBBB" cx="295.39" cy="334.697" r="8.645"/>
	</g>
	<g>
		<g>
			<path fill="#FFFFFF" d="M271.518,187.896c-19.005,38.891-4.663,69.888-4.663,69.888l-19.451,1.707l-12.676,1.111
				c-14.605-61.787,44.119-103.421,44.527-103.71c-30.154,37.765-24.889,74.964-24.889,74.964
				C253.999,213.12,271.25,188.28,271.518,187.896z"/>
			<path fill="#E1E1E1" d="M247.403,259.491l-12.676,1.111c-14.605-61.787,44.119-103.421,44.527-103.71
				c-0.3,0.331-38.729,42.585-39.188,71.532C239.801,245.14,243.885,254.528,247.403,259.491z"/>
		</g>
		<g>
			<g>
				<path fill="#FFFFFF" d="M411.724,274.936c-2.497,0-4.905,0.373-7.178,1.062c-3.683-8.479-10.968-15.029-19.926-17.716
					c-0.184-0.06-0.373-0.114-0.564-0.165c-0.112-0.03-0.223-0.063-0.326-0.091c-2.621-0.701-5.375-1.077-8.222-1.077
					c-1.591,0-3.15,0.119-4.679,0.343c-3.18-6.467-9.83-10.915-17.523-10.915c-1.063,0-2.11,0.085-3.127,0.251
					c-4.947,0.795-9.271,3.452-12.235,7.229c-2.571-0.629-5.258-0.966-8.021-0.966c-0.354,0-0.707,0.01-1.059,0.02
					c-6.132-8.295-15.983-13.676-27.09-13.676c-7.696,0-14.789,2.585-20.461,6.931c-3.769,2.885-6.907,6.549-9.179,10.753
					c-2.088-1.129-4.311-2.043-6.633-2.71c-1.307-0.378-2.642-0.68-4.007-0.896c-1.737-0.278-3.523-0.422-5.341-0.422
					c-4.011,0-7.853,0.703-11.42,1.988c-0.851,0.308-1.685,0.649-2.5,1.018c-2.294-4.732-5.657-8.846-9.783-12.02
					c-1.245-0.964-2.56-1.839-3.934-2.619v-0.158c0-1.314-0.077-2.612-0.223-3.889c-0.227-2-0.634-3.942-1.199-5.82
					c0,0,0-0.003-0.003-0.006c-0.026-0.095-0.052-0.186-0.083-0.28c-0.002,0-0.002-0.003-0.002-0.003
					c-2.696-8.683-8.81-15.862-16.77-19.955c-3.284-1.695-6.88-2.859-10.678-3.391c-0.003,0-0.003,0-0.006,0
					c-1.537-0.216-3.109-0.328-4.708-0.328c-3.062,0-6.029,0.407-8.849,1.179c-1.841,0.497-3.617,1.148-5.317,1.939
					c-3.159-3.297-7.262-5.688-11.875-6.742c0.514-0.857,0.987-1.743,1.416-2.653c0.215-0.455,0.419-0.916,0.612-1.384
					c0.127-0.31,0.251-0.624,0.369-0.939c0.178-0.476,0.343-0.955,0.497-1.439c0.095-0.302,0.187-0.602,0.272-0.908
					c0.75-2.644,1.149-5.437,1.149-8.325c0-3.346-0.538-6.567-1.534-9.58c-0.497-1.503-1.108-2.959-1.826-4.351
					c-0.071-0.139-0.142-0.275-0.219-0.413v-0.004h-0.003v-0.002c-0.175-0.326-0.354-0.651-0.541-0.97
					c-0.092-0.16-0.187-0.323-0.284-0.481c-0.192-0.313-0.391-0.627-0.591-0.935c-1.114-1.698-2.397-3.28-3.824-4.72
					c-0.363-0.366-0.736-0.723-1.117-1.073v-0.002c1.752-2.623,2.778-5.773,2.778-9.166c0-0.691-0.042-1.375-0.127-2.042h-4.413
					c-2.634,0-4.788,2.159-4.788,4.791v140.487c0,2.635,2.154,4.789,4.788,4.789h270.107c2.361,0,4.343-1.736,4.724-3.992v-4.01
					C434.686,284.332,424.303,274.936,411.724,274.936z"/>
			</g>
			<path fill="#E1E1E1" d="M411.724,274.936c-2.497,0-4.905,0.373-7.178,1.062c-3.683-8.479-10.968-15.029-19.926-17.716
				c9.215,2.918,8.904,14.27,0.321,18.401c-1.765,0.848-3.877,1.395-6.328,1.499c-14.623,0.621-17.002-4.815-17.002-4.815
				s-3.293,13.159-17.914,14.848c-6.191,0.717-11.375-0.123-15.46-1.48h-0.003c-7.081-2.344-10.861-6.232-10.861-6.232
				s-5.477,5.27-14.754,8.367c-5.151,1.719-11.474,2.77-18.682,1.877c-1.251-0.154-2.439-0.338-3.57-0.541
				c-19.3-3.5-21.481-13.738-21.481-13.738c-4.096,7.07-12.413,11.792-25.802,9.001c-13.384-2.793-15.474-11.481-15.474-11.481
				c-5.875,9.549-23.585,11.172-28.86,0c-5.275-11.174,0-19.243,0-19.243c-8.689,0.62-17.515-14.033-11.462-29.162
				c2.829-7.073,7.986-10.903,13.395-12.919h0.003c9.298-3.463,19.338-1.56,19.551-1.515c-3.284-1.695-6.88-2.859-10.678-3.391
				c-0.003,0-0.003,0-0.006,0c-1.537-0.216-3.109-0.328-4.708-0.328c-3.062,0-6.029,0.407-8.849,1.179
				c-1.841,0.497-3.617,1.148-5.317,1.939c-3.159-3.297-7.262-5.688-11.875-6.742c0.514-0.857,0.987-1.743,1.416-2.653
				c0.215-0.455,0.419-0.916,0.612-1.384c0.127-0.31,0.251-0.624,0.369-0.939c0.178-0.476,0.343-0.955,0.497-1.439
				c0.095-0.302,0.187-0.602,0.272-0.908c0.75-2.644,1.149-5.437,1.149-8.325c0-3.346-0.538-6.567-1.534-9.58
				c-0.497-1.503-1.108-2.959-1.826-4.351c-0.071-0.139-0.142-0.275-0.219-0.413v-0.004h-0.003v-0.002
				c-0.175-0.328-0.354-0.651-0.541-0.97c-0.092-0.16-0.187-0.323-0.284-0.481c-0.189-0.317-0.388-0.627-0.591-0.935
				c-1.114-1.698-2.397-3.28-3.824-4.72c-0.363-0.37-0.736-0.727-1.117-1.075c1.752-2.623,2.778-5.773,2.778-9.166
				c0-0.691-0.042-1.375-0.127-2.042h-4.413c-2.634,0-4.788,2.159-4.788,4.791v140.487c0,2.635,2.154,4.789,4.788,4.789h270.107
				c2.361,0,4.343-1.736,4.724-3.992v-4.01C434.686,284.332,424.303,274.936,411.724,274.936z"/>
		</g>
		<g>
			<circle fill="#E1E1E1" cx="205.425" cy="192.782" r="4.916"/>
			<circle fill="#FFFFFF" cx="206.376" cy="191.711" r="3.567"/>
		</g>
		<g>
			<circle fill="#E1E1E1" cx="299.973" cy="229.454" r="3.087"/>
			<circle fill="#FFFFFF" cx="300.571" cy="228.781" r="2.24"/>
		</g>
		<g>
			<circle fill="#E1E1E1" cx="241.574" cy="182.646" r="1.647"/>
			<circle fill="#FFFFFF" cx="241.893" cy="182.288" r="1.195"/>
		</g>
		<g>
			<polygon fill="#FFFFFF" points="227.339,223.843 229.922,197.085 225.237,209.506 227.633,166.011 222.907,217.999 
				227.457,208.799 			"/>
			<polygon fill="#FFFFFF" points="267.681,243.08 286.99,224.378 275.373,230.797 305.387,199.229 268.093,235.756 
				277.521,231.699 			"/>
		</g>
	</g>
	<g>
		
			<rect x="367.478" y="314.854" transform="matrix(-0.0145 -0.9999 0.9999 -0.0145 59.1224 718.2322)" opacity="0.2" width="32.058" height="30.252"/>
		
			<rect x="366.73" y="313.252" transform="matrix(-0.0145 -0.9999 0.9999 -0.0145 59.0328 714.9429)" fill="#FFD75E" width="30.249" height="30.253"/>
		
			<rect x="379.075" y="305.914" transform="matrix(0.9999 -0.0147 0.0147 0.9999 -4.5232 5.6328)" opacity="0.5" fill="#FFFFFF" width="5.058" height="10.302"/>
	</g>
</g>
<g>
	<g>
		<polygon opacity="0.2" points="446.091,494.285 146.006,494.285 185.63,431.383 406.466,431.383 		"/>
		<g>
			<g>
				<polygon fill="#E1E1E1" points="436.017,474.879 155.414,474.879 182.741,431.383 408.69,431.383 				"/>
				<rect x="155.414" y="474.879" fill="#BBBBBB" width="280.603" height="9.854"/>
			</g>
			<g>
				<polygon fill="#FFFFFF" points="197.732,439.064 183.552,439.064 185.63,434.604 199.36,434.604 				"/>
				<polygon fill="#FFFFFF" points="199.568,439.064 201.361,434.604 215.091,434.604 213.748,439.064 				"/>
				<polygon fill="#FFFFFF" points="215.584,439.064 217.092,434.604 230.822,434.604 229.765,439.064 				"/>
				<polygon fill="#FFFFFF" points="231.651,439.064 232.875,434.604 246.604,434.604 245.833,439.064 				"/>
				<polygon fill="#FFFFFF" points="247.686,439.064 248.624,434.604 262.353,434.604 261.866,439.064 				"/>
				<polygon fill="#FFFFFF" points="263.719,439.064 264.372,434.604 278.102,434.604 277.899,439.064 				"/>
				<polygon fill="#FFFFFF" points="279.711,439.064 280.079,434.604 293.809,434.604 293.892,439.064 				"/>
				<polygon fill="#FFFFFF" points="295.603,439.064 295.686,434.604 309.414,434.604 309.782,439.064 				"/>
				<polygon fill="#FFFFFF" points="311.595,439.064 311.393,434.604 325.121,434.604 325.774,439.064 				"/>
				<polygon fill="#FFFFFF" points="327.628,439.064 327.141,434.604 340.869,434.604 341.808,439.064 				"/>
				<polygon fill="#FFFFFF" points="343.661,439.064 342.889,434.604 356.619,434.604 357.841,439.064 				"/>
				<polygon fill="#FFFFFF" points="359.729,439.064 358.672,434.604 372.401,434.604 373.909,439.064 				"/>
				<polygon fill="#FFFFFF" points="375.746,439.064 374.402,434.604 388.132,434.604 389.926,439.064 				"/>
				<polygon fill="#FFFFFF" points="391.762,439.064 405.941,439.064 403.863,434.604 390.134,434.604 				"/>
			</g>
			<g>
				<polygon fill="#FFFFFF" points="194.789,447.396 180.087,447.396 182.242,442.773 196.477,442.773 				"/>
				<polygon fill="#FFFFFF" points="196.692,447.396 198.551,442.773 212.786,442.773 211.394,447.396 				"/>
				<polygon fill="#FFFFFF" points="213.297,447.396 214.861,442.773 229.095,442.773 227.999,447.396 				"/>
				<polygon fill="#FFFFFF" points="229.957,447.396 231.223,442.773 245.458,442.773 244.657,447.396 				"/>
				<polygon fill="#FFFFFF" points="246.578,447.396 247.551,442.773 261.786,442.773 261.28,447.396 				"/>
				<polygon fill="#FFFFFF" points="263.202,447.396 263.879,442.773 278.112,442.773 277.903,447.396 				"/>
				<polygon fill="#FFFFFF" points="279.781,447.396 280.162,442.773 294.397,442.773 294.483,447.396 				"/>
				<polygon fill="#FFFFFF" points="296.257,447.396 296.343,442.773 310.577,442.773 310.958,447.396 				"/>
				<polygon fill="#FFFFFF" points="312.836,447.396 312.627,442.773 326.861,442.773 327.538,447.396 				"/>
				<polygon fill="#FFFFFF" points="329.46,447.396 328.955,442.773 343.189,442.773 344.161,447.396 				"/>
				<polygon fill="#FFFFFF" points="346.083,447.396 345.281,442.773 359.516,442.773 360.783,447.396 				"/>
				<polygon fill="#FFFFFF" points="362.741,447.396 361.646,442.773 375.88,442.773 377.441,447.396 				"/>
				<polygon fill="#FFFFFF" points="379.346,447.396 377.954,442.773 392.188,442.773 394.047,447.396 				"/>
				<polygon fill="#FFFFFF" points="395.951,447.396 410.651,447.396 408.498,442.773 394.264,442.773 				"/>
			</g>
			<g>
				<polygon fill="#FFFFFF" points="192.149,455.58 177.006,455.58 179.226,450.82 193.887,450.82 				"/>
				<polygon fill="#FFFFFF" points="194.109,455.58 196.024,450.82 210.685,450.82 209.251,455.58 				"/>
				<polygon fill="#FFFFFF" points="211.212,455.58 212.823,450.82 227.483,450.82 226.354,455.58 				"/>
				<polygon fill="#FFFFFF" points="228.371,455.58 229.676,450.82 244.337,450.82 243.512,455.58 				"/>
				<polygon fill="#FFFFFF" points="245.492,455.58 246.493,450.82 261.153,450.82 260.634,455.58 				"/>
				<polygon fill="#FFFFFF" points="262.613,455.58 263.309,450.82 277.971,450.82 277.755,455.58 				"/>
				<polygon fill="#FFFFFF" points="279.688,455.58 280.082,450.82 294.743,450.82 294.831,455.58 				"/>
				<polygon fill="#FFFFFF" points="296.658,455.58 296.746,450.82 311.407,450.82 311.801,455.58 				"/>
				<polygon fill="#FFFFFF" points="313.735,455.58 313.52,450.82 328.18,450.82 328.878,455.58 				"/>
				<polygon fill="#FFFFFF" points="330.856,455.58 330.336,450.82 344.996,450.82 345.998,455.58 				"/>
				<polygon fill="#FFFFFF" points="347.978,455.58 347.152,450.82 361.813,450.82 363.12,455.58 				"/>
				<polygon fill="#FFFFFF" points="365.136,455.58 364.006,450.82 378.667,450.82 380.277,455.58 				"/>
				<polygon fill="#FFFFFF" points="382.237,455.58 380.805,450.82 395.466,450.82 397.38,455.58 				"/>
				<polygon fill="#FFFFFF" points="399.341,455.58 414.482,455.58 412.264,450.82 397.603,450.82 				"/>
			</g>
			<g>
				<polygon fill="#FFFFFF" points="188.475,463.934 172.806,463.934 175.102,459.006 190.273,459.006 				"/>
				<polygon fill="#FFFFFF" points="190.503,463.934 192.485,459.006 207.656,459.006 206.172,463.934 				"/>
				<polygon fill="#FFFFFF" points="208.202,463.934 209.867,459.006 225.038,459.006 223.87,463.934 				"/>
				<polygon fill="#FFFFFF" points="225.957,463.934 227.308,459.006 242.479,459.006 241.625,463.934 				"/>
				<polygon fill="#FFFFFF" points="243.673,463.934 244.709,459.006 259.881,459.006 259.342,463.934 				"/>
				<polygon fill="#FFFFFF" points="329.237,459.006 314.067,459.006 311.882,459.006 296.712,459.006 294.638,459.006 
					279.467,459.006 262.111,459.006 261.389,463.934 279.061,463.934 294.729,463.934 296.619,463.934 312.289,463.934 
					314.291,463.934 329.96,463.934 				"/>
				<polygon fill="#FFFFFF" points="332.007,463.934 331.469,459.006 346.641,459.006 347.676,463.934 				"/>
				<polygon fill="#FFFFFF" points="349.725,463.934 348.87,459.006 364.042,459.006 365.394,463.934 				"/>
				<polygon fill="#FFFFFF" points="367.479,463.934 366.311,459.006 381.481,459.006 383.147,463.934 				"/>
				<polygon fill="#FFFFFF" points="385.178,463.934 383.693,459.006 398.864,459.006 400.847,463.934 				"/>
				<polygon fill="#FFFFFF" points="402.875,463.934 418.544,463.934 416.246,459.006 401.076,459.006 				"/>
			</g>
		</g>
	</g>
	<g>
		
			<ellipse transform="matrix(-0.866 -0.5 0.5 -0.866 678.2225 1108.5681)" opacity="0.2" cx="487.635" cy="463.417" rx="29.263" ry="18.485"/>
		<g>
			<path fill="#FFFFFF" d="M512.68,470.031h-0.008c-0.089,0.434-0.238,0.83-0.45,1.174c0,0,0,0.008-0.009,0.008
				c-5.3,8.58-33.579,3.678-36.727-3.906c-0.273-0.66-0.546-1.268-0.803-1.834c-3.924-8.43-6.42-6.084-13.306-11.797
				c-0.299-0.246-0.574-0.504-0.802-0.768c-0.027-0.035-0.063-0.061-0.089-0.096c-3.88-4.42,0.891-10.055,0.891-10.055
				c0.291-0.229,0.582-0.449,0.872-0.66c0-0.01,0-0.01,0-0.01c2.303-1.666,4.692-2.795,7.125-3.475
				c1.111-0.316,2.24-0.527,3.368-0.652C492.91,435.67,514.532,461.313,512.68,470.031z"/>
			<path fill="#E1E1E1" d="M512.213,471.213c-5.3,8.58-33.579,3.678-36.727-3.906c-0.273-0.66-0.546-1.268-0.803-1.834
				c-3.949-8.393-6.63-5.846-13.306-11.797c-0.291-0.256-0.556-0.512-0.802-0.768c-0.027-0.035-0.063-0.061-0.089-0.096
				c-3.88-4.42,0.891-10.055,0.891-10.055c0.291-0.229,0.582-0.449,0.872-0.66c-0.563,1.631-1.102,5.316,3.37,8.896
				c1.049,0.848,2.247,1.473,3.481,2.02c0.979,0.422,2.946,1.914,6.455,6.807c5.617,7.824,4.851,8.82,17.31,12.23
				C505.044,475.393,511.913,471.391,512.213,471.213z"/>
			<path fill="#E1E1E1" d="M481.729,444.822c-7.214-5.986-12.354-6.209-12.354-6.209c1.111-0.316,2.24-0.527,3.368-0.652
				C478.497,439.906,481.659,444.584,481.729,444.822z"/>
		</g>
	</g>
</g>
<g>
	<g>
		<ellipse opacity="0.2" cx="99.717" cy="438.32" rx="44.098" ry="6.594"/>
		<g>
			<g>
				<g>
					<path fill="#FFFFFF" d="M136.706,382.234c-1.85-0.604-3.832-0.926-5.882-0.916c-10.312,0.057-18.654,8.494-18.599,18.803
						c0.055,10.311,8.488,18.652,18.8,18.598c0.194-0.002,0.383-0.008,0.572-0.012c10.043-0.359,18.081-8.67,18.027-18.787
						C149.58,391.666,144.16,384.668,136.706,382.234z M136.542,409.305c-1.624,0.982-3.523,1.555-5.558,1.566
						c-5.987,0.031-10.878-4.807-10.911-10.793c-0.032-5.984,4.807-10.879,10.793-10.912c2.558-0.012,4.921,0.865,6.785,2.34
						c2.495,1.977,4.107,5.031,4.126,8.457C141.798,403.912,139.694,407.385,136.542,409.305z"/>
				</g>
				<path fill="#E1E1E1" d="M130.983,410.871c2.035-0.012,3.934-0.584,5.558-1.566c-0.935,3.859-2.486,7.227-4.944,9.402
					c-0.189,0.004-0.378,0.01-0.572,0.012c-10.312,0.055-18.745-8.287-18.8-18.598c-0.056-10.309,8.287-18.746,18.599-18.803
					c2.05-0.01,4.032,0.313,5.882,0.916c0.292,2.025,0.717,5.369,0.945,9.271c-1.863-1.475-4.227-2.352-6.785-2.34
					c-5.987,0.033-10.826,4.928-10.793,10.912C120.105,406.064,124.996,410.902,130.983,410.871z"/>
			</g>
			<path fill="#FFFFFF" d="M133.236,373.918l0.142,26.426c0.042,7.898-2.624,15.172-7.125,20.953
				c-2.361,3.037-5.232,5.658-8.485,7.74c-5.212,3.342-11.401,5.293-18.048,5.328c-6.646,0.035-12.856-1.846-18.104-5.135
				c-3.275-2.045-6.174-4.637-8.567-7.648c-4.563-5.732-7.308-12.979-7.35-20.877l-0.142-26.426L133.236,373.918z"/>
			<path fill="#E1E1E1" d="M122.888,438.422l-46.291,0.248c-2.588,0.016-4.718-2.092-4.731-4.68l0,0
				c-0.014-2.588,2.093-4.717,4.681-4.73l46.291-0.25c2.588-0.014,4.717,2.094,4.731,4.68l0,0
				C127.583,436.279,125.476,438.408,122.888,438.422z"/>
			<path fill="#E1E1E1" d="M126.252,421.297c-2.361,3.037-5.232,5.658-8.485,7.74l-36.152,0.193
				c-3.275-2.045-6.174-4.637-8.567-7.648c-4.563-5.732-7.308-12.979-7.35-20.877l-0.142-26.426l20.158-0.109l0.038,7.059
				C85.872,403.477,104.004,421.418,126.252,421.297L126.252,421.297z"/>
		</g>
	</g>
	<linearGradient id="SVGID_1_" gradientUnits="userSpaceOnUse" x1="99.7168" y1="408.1729" x2="99.7168" y2="290.3968">
		<stop  offset="0" style="stop-color:#FFFFFF"/>
		<stop  offset="1" style="stop-color:#FFFFFF;stop-opacity:0"/>
	</linearGradient>
	<path fill="url(#SVGID_1_)" d="M87.136,365.104c0,0-7.769-5.619-5.502-16.625c2.266-11.008,11.331-12.627,8.74-29.783
		c-2.589-17.158-3.885-32.697,3.561-41.763h24.28c0,0-8.498,23.066-2.67,38.607c5.827,15.539,0.69,21.932-4.471,30.674
		c-5.161,8.742,2.609,18.891,2.609,18.891H87.136z"/>
</g>
<g>
	<g>
		<path fill="#FFFFFF" d="M114.165,179.257c-12.096,1.236-13.098,2.237-14.333,14.334c-1.235-12.097-2.237-13.098-14.333-14.334
			c12.096-1.235,13.098-2.237,14.333-14.333C101.067,177.02,102.069,178.021,114.165,179.257z"/>
	</g>
	<g>
		<path fill="#FFFFFF" d="M494.078,343.197c-12.096,1.236-13.097,2.236-14.333,14.332c-1.235-12.096-2.236-13.096-14.333-14.332
			c12.097-1.236,13.098-2.24,14.333-14.336C480.981,340.957,481.982,341.961,494.078,343.197z"/>
	</g>
</g>
<g>
	<rect x="482.194" y="251.543" opacity="0.2" width="68.431" height="54.593"/>
	<g>
		<rect x="482.194" y="246.401" fill="#FFFFFF" width="68.431" height="54.593"/>
		<g>
			<path fill="#FF422A" d="M482.195,232.563v14.008h68.429v-14.008H482.195z M491.536,242.669c-1.86,0-3.367-1.506-3.372-3.367
				v-0.005c0-1.855,1.512-3.363,3.372-3.363s3.363,1.508,3.363,3.363v0.005C494.895,241.163,493.396,242.669,491.536,242.669z
				 M541.287,242.669c-1.86,0-3.363-1.506-3.367-3.367v-0.005c0-1.855,1.507-3.363,3.367-3.363c1.864,0,3.367,1.508,3.367,3.363
				v0.005C544.65,241.163,543.151,242.669,541.287,242.669z"/>
			<path fill="#FF422A" d="M550.624,239.302v7.27h-68.429v-7.27h5.969c0.005,1.861,1.512,3.367,3.372,3.367s3.358-1.506,3.363-3.367
				h43.021c0.004,1.861,1.507,3.367,3.367,3.367c1.864,0,3.363-1.506,3.367-3.367H550.624z"/>
		</g>
		<path fill="#FFFFFF" d="M493.509,239.3h-3.952c-0.102,0-0.184-0.08-0.184-0.182v-12.929c0-0.67,0.543-1.212,1.213-1.212h1.894
			c0.67,0,1.213,0.542,1.213,1.212v12.929C493.692,239.22,493.609,239.3,493.509,239.3z"/>
		<path fill="#FFFFFF" d="M543.263,239.3h-3.951c-0.102,0-0.184-0.08-0.184-0.182v-12.929c0-0.67,0.542-1.212,1.212-1.212h1.894
			c0.67,0,1.212,0.542,1.212,1.212v12.929C543.445,239.22,543.364,239.3,543.263,239.3z"/>
		<g>
			<path fill="#003948" d="M501.512,260.081c3.979,0,4.868-1.918,5.663-4.119h3.465v32.763h-5.148v-24.993h-3.979V260.081z"/>
			<path fill="#003948" d="M524.397,260.268c-1.638,0-2.667,0.89-2.667,3.23v3.51h-4.867v-3.183c0-5.242,2.62-8.237,7.676-8.237
				c5.055,0,7.676,2.996,7.676,8.237c0,10.296-10.25,14.136-10.25,19.517c0,0.234,0,0.469,0.046,0.701h9.735v4.682h-14.883v-4.025
				c0-9.641,10.202-11.233,10.202-20.687C527.065,261.064,526.037,260.268,524.397,260.268z"/>
		</g>
	</g>
</g>
<g>
	<g opacity="0.2">
		<circle cx="99.717" cy="91.604" r="46.585"/>
	</g>
	<g>
		<g>
			<circle fill="#182632" cx="99.717" cy="86.853" r="46.585"/>
		</g>
	</g>
	<g>
		<path fill="#FFFFFF" d="M99.717,129.766c-23.662,0-42.913-19.251-42.913-42.913c0-23.663,19.251-42.913,42.913-42.913
			c23.663,0,42.914,19.25,42.914,42.913C142.63,110.515,123.379,129.766,99.717,129.766z"/>
	</g>
	<g>
		<g>
			<rect x="98.225" y="47.841" fill="#182632" width="1.606" height="8.95"/>
		</g>
		<g>
			<rect x="98.225" y="116.686" fill="#182632" width="1.606" height="8.95"/>
		</g>
	</g>
	<g>
		<g>
			<rect x="60.131" y="85.935" fill="#182632" width="8.95" height="1.607"/>
		</g>
		<g>
			<rect x="128.976" y="85.935" fill="#182632" width="8.95" height="1.607"/>
		</g>
	</g>
	<g>
		<g>
			
				<rect x="122.565" y="57.924" transform="matrix(0.7068 0.7074 -0.7074 0.7068 80.3124 -68.9772)" fill="#182632" width="1.606" height="8.949"/>
		</g>
		<g>
			
				<rect x="73.885" y="106.604" transform="matrix(0.7071 0.7071 -0.7071 0.7071 100.4203 -20.2783)" fill="#182632" width="1.607" height="8.949"/>
		</g>
	</g>
	<g>
		<g>
			
				<rect x="73.885" y="57.924" transform="matrix(0.7071 -0.7071 0.7071 0.7071 -22.2465 71.0886)" fill="#182632" width="1.607" height="8.949"/>
		</g>
		<g>
			
				<rect x="122.565" y="106.603" transform="matrix(0.7071 -0.7071 0.7071 0.7071 -42.4104 119.7691)" fill="#182632" width="1.607" height="8.95"/>
		</g>
	</g>
	<g opacity="0.2">
		<path d="M142.63,86.853c0,0.822-0.023,1.639-0.069,2.451c-1.271-22.531-20.002-40.467-42.844-40.467
			c-22.843,0-41.573,17.936-42.844,40.467c-0.046-0.813-0.069-1.629-0.069-2.451c0-23.664,19.249-42.913,42.913-42.913
			C123.381,43.94,142.63,63.189,142.63,86.853z"/>
	</g>
	<g>
		<g>
			<g>
				
					<rect x="97.91" y="88.615" transform="matrix(0.9305 0.3664 -0.3664 0.9305 40.0948 -32.6504)" fill="#DC3645" width="16.308" height="1.377"/>
			</g>
		</g>
	</g>
	<g>
		<polygon fill="#182632" points="99.717,87.427 74.688,87.427 74.688,86.05 98.34,86.05 98.34,66.622 99.717,66.622 		"/>
	</g>
</g>
<g>
	<g>
		<path opacity="0.1" fill="#FFFFFF" enable-background="new    " d="M343.144,125.978c-8.477-8.001-21.833-7.618-29.834,0.858
			c-20.807,22.036-19.063,50.93-47.213,80.744c28.149-29.814,57.096-29.732,77.903-51.769
			C352,147.336,351.617,133.979,343.144,125.978z"/>
		<path opacity="0.2" fill="#FFFFFF" d="M343.144,125.978c-5.675-5.356-14.617-5.101-19.975,0.573
			c-13.929,14.754-12.76,34.097-31.605,54.057c18.846-19.96,38.224-19.903,52.152-34.656
			C349.074,140.276,348.815,131.334,343.144,125.978z"/>
	</g>
	
		<linearGradient id="SVGID_2_" gradientUnits="userSpaceOnUse" x1="-6827.2861" y1="291.665" x2="-6827.313" y2="299.6806" gradientTransform="matrix(0.7248 0.689 0.689 -0.7248 5086.5405 5045.0415)">
		<stop  offset="0" style="stop-color:#FFFFFF"/>
		<stop  offset="0.129" style="stop-color:#EFF6FF"/>
		<stop  offset="0.5153" style="stop-color:#C6DFFF"/>
		<stop  offset="0.8188" style="stop-color:#ACD0FF"/>
		<stop  offset="1" style="stop-color:#A2CBFF"/>
	</linearGradient>
	<path fill="url(#SVGID_2_)" d="M349.72,139.705l-21.011-20.037c-0.987-0.943-1.023-2.508-0.083-3.496l3.719-3.898l24.587,23.45
		l-3.717,3.898C352.271,140.611,350.708,140.647,349.72,139.705z"/>
	<g>
		
			<linearGradient id="SVGID_3_" gradientUnits="userSpaceOnUse" x1="-5663.7773" y1="-2822.3696" x2="-5623.6709" y2="-2822.1687" gradientTransform="matrix(0.7236 0.6901 0.6901 -0.7236 6410.4121 1993.3838)">
			<stop  offset="0.25" style="stop-color:#FF422A"/>
			<stop  offset="0.3387" style="stop-color:#FF522F"/>
			<stop  offset="0.9557" style="stop-color:#FFCE5B"/>
			<stop  offset="1" style="stop-color:#FFD75E"/>
		</linearGradient>
		<path fill="url(#SVGID_3_)" d="M403.619,113.28l-4.457,31.939c-0.534,3.831-2.712,7.238-5.961,9.334l-31.005,19.991
			c-1.011,0.652-2.348-0.024-2.423-1.224l-2.872-38.175L403.619,113.28z"/>
		
			<linearGradient id="SVGID_4_" gradientUnits="userSpaceOnUse" x1="11345.2363" y1="-2794.9922" x2="11305.2285" y2="-2794.9221" gradientTransform="matrix(-0.7259 -0.6878 0.6878 -0.7259 10469.1309 5851.4629)">
			<stop  offset="0" style="stop-color:#FFD75E"/>
			<stop  offset="0.493" style="stop-color:#FF723B"/>
			<stop  offset="0.75" style="stop-color:#FF422A"/>
		</linearGradient>
		<path fill="url(#SVGID_4_)" d="M352.348,64.543l-31.672,6.07c-3.799,0.728-7.092,3.076-9.021,6.429l-18.393,31.979
			c-0.598,1.041,0.144,2.342,1.344,2.356l38.271,0.934L352.348,64.543z"/>
	</g>
	
		<linearGradient id="SVGID_5_" gradientUnits="userSpaceOnUse" x1="488.1494" y1="270.8291" x2="573.986" y2="184.9925" gradientTransform="matrix(0.7271 0.6865 0.6865 -0.7271 -153.4141 -121.5991)">
		<stop  offset="0" style="stop-color:#FFFFFF"/>
		<stop  offset="0.2088" style="stop-color:#FBFDFF"/>
		<stop  offset="0.416" style="stop-color:#EFF6FF"/>
		<stop  offset="0.6226" style="stop-color:#DBEBFF"/>
		<stop  offset="0.8275" style="stop-color:#BFDBFF"/>
		<stop  offset="1" style="stop-color:#A2CBFF"/>
	</linearGradient>
	<path fill="url(#SVGID_5_)" d="M448.292,15.12c-41.318-3.033-111.047,44.896-119.251,91.224c-0.254,1.436,0.135,2.808,1.082,3.711
		l29.018,27.689c0.947,0.905,2.336,1.228,3.756,0.907C408.759,128.26,453.273,56.268,448.292,15.12z"/>
	
		<linearGradient id="SVGID_6_" gradientUnits="userSpaceOnUse" x1="512.6025" y1="295.2813" x2="549.4849" y2="258.3989" gradientTransform="matrix(0.7271 0.6865 0.6865 -0.7271 -153.4141 -121.5991)">
		<stop  offset="0" style="stop-color:#FFD75E"/>
		<stop  offset="0.493" style="stop-color:#FF723B"/>
		<stop  offset="0.75" style="stop-color:#FF422A"/>
	</linearGradient>
	<path fill="url(#SVGID_6_)" d="M448.292,15.12c-14.928-1.096-33.555,4.491-51.657,14.225c-7.154-7.434,39.938,38.023,39.938,38.023
		C445.41,48.831,450.088,29.969,448.292,15.12z"/>
	<g>
		
			<linearGradient id="SVGID_7_" gradientUnits="userSpaceOnUse" x1="517.9082" y1="247.0425" x2="544.055" y2="220.8956" gradientTransform="matrix(0.7271 0.6865 0.6865 -0.7271 -153.4141 -121.5991)">
			<stop  offset="0" style="stop-color:#FFD75E"/>
			<stop  offset="0.493" style="stop-color:#FF723B"/>
			<stop  offset="0.75" style="stop-color:#FF422A"/>
		</linearGradient>
		<circle fill="url(#SVGID_7_)" cx="393.295" cy="72.804" r="18.488"/>
		<g>
			<g>
				<path fill="#571AFF" d="M405.583,81.366c-4.729,6.787-14.063,8.456-20.851,3.726c-6.786-4.728-8.454-14.062-3.726-20.85
					c4.728-6.786,14.061-8.456,20.85-3.726C408.642,65.244,410.312,74.579,405.583,81.366z"/>
				<path fill="#571AFF" d="M405.583,81.366c1.999-2.867,2.843-6.189,2.651-9.427c-0.268,0.307-0.522,0.625-0.763,0.945
					c-1.104,1.49-2.123,3.143-3.73,4.071c-1.488,0.86-3.384,0.97-4.959,0.283c-2.256-0.982-3.698-3.388-6.024-4.188
					c-2.833-0.975-6.048,0.739-8.904-0.168c-1.352-0.428-2.467-1.409-3.335-2.526c-0.616-0.791-1.125-1.695-1.28-2.679
					c-2.277,6.231-0.205,13.445,5.494,17.418C391.52,89.821,400.854,88.153,405.583,81.366z"/>
			</g>
			<g opacity="0.4">
				<path fill="#FFFFFF" d="M402.189,64.057c-0.232-0.219-0.477-0.43-0.731-0.631c-0.259-0.208-0.586-0.299-0.919-0.262
					c-0.331,0.04-0.628,0.206-0.834,0.465c-0.403,0.509-0.354,1.23,0.115,1.678l0.09,0.076c0.199,0.157,0.392,0.325,0.577,0.497
					c0.242,0.229,0.562,0.348,0.896,0.336c0.332-0.012,0.642-0.153,0.868-0.396C402.714,65.32,402.69,64.533,402.189,64.057z
					 M400.122,64.99L400.122,64.99L400.122,64.99L400.122,64.99z"/>
				<path fill="#FFFFFF" d="M398.52,61.838c-0.134-0.305-0.378-0.539-0.687-0.663c-3.191-1.256-6.799-1.136-9.9,0.329
					c-0.619,0.296-0.885,1.042-0.592,1.665c0.065,0.139,0.155,0.261,0.265,0.366c0.37,0.354,0.932,0.443,1.395,0.225
					c2.517-1.188,5.329-1.282,7.918-0.263c0.312,0.123,0.649,0.115,0.954-0.017c0.308-0.132,0.543-0.376,0.662-0.685
					C398.66,62.484,398.654,62.145,398.52,61.838z"/>
			</g>
		</g>
	</g>
	<path fill="#FFFFFF" d="M334.09,101.658c-1.37,2.792-2.667,5.637-3.868,8.543l12.756,12.044c0.118-0.568,0.24-1.139,0.369-1.717
		c0.332-1.446,0.721-2.904,1.126-4.364c0.83-2.918,1.81-5.829,2.865-8.72c2.166-5.764,4.747-11.428,7.719-16.908
		c5.961-10.947,13.408-21.22,22.186-30.358c4.399-4.552,9.027-8.945,14.028-12.914l1.854-1.523l1.917-1.439l3.847-2.879l3.976-2.71
		l1.991-1.359l2.051-1.266c10.902-6.836,22.637-12.506,34.86-17.014c-12.627,3.193-25.02,7.619-36.869,13.405l-2.232,1.073
		l-2.18,1.169l-4.37,2.346l-4.268,2.54l-2.135,1.276l-2.079,1.366c-5.611,3.562-10.918,7.617-16.047,11.91
		c-10.239,8.622-19.361,18.706-27.082,29.884C340.653,89.637,337.171,95.52,334.09,101.658z"/>
	
		<linearGradient id="SVGID_8_" gradientUnits="userSpaceOnUse" x1="-5699.2231" y1="-2813.4297" x2="-5661.3599" y2="-2850.9158" gradientTransform="matrix(0.7236 0.6901 0.6901 -0.7236 6410.4106 1993.3818)">
		<stop  offset="0.25" style="stop-color:#FF422A"/>
		<stop  offset="1" style="stop-color:#FFD65E"/>
	</linearGradient>
	<path fill="url(#SVGID_8_)" d="M321.052,148.717L321.052,148.717c-2.085-1.988-2.196-5.278-0.256-7.405l24.232-26.381
		c2.989-3.269,6.309-6.221,9.904-8.805L369.6,95.593l2.205,2.104l-9.827,15.146c-2.411,3.714-5.202,7.172-8.326,10.311
		l-25.192,25.466C326.426,150.661,323.137,150.704,321.052,148.717z"/>
</g>
<g>
</g>
<g>
</g>
<g>
</g>
<g>
</g>
<g>
</g>
<g>
</g>
</svg>
